<svg width="47" height="46" viewBox="0 0 47 46" fill="none" xmlns="http://www.w3.org/2000/svg">
<g id="Dotted Shape">
<circle id="Ellipse 3" cx="1.39737" cy="44.6026" r="1.39737" transform="rotate(-90 1.39737 44.6026)" fill="#3758F9"/>
<circle id="Ellipse 51" cx="1.39737" cy="7.9913" r="1.39737" transform="rotate(-90 1.39737 7.9913)" fill="#3758F9"/>
<circle id="Ellipse 8" cx="13.6947" cy="44.6026" r="1.39737" transform="rotate(-90 13.6947 44.6026)" fill="#3758F9"/>
<circle id="Ellipse 52" cx="13.6947" cy="7.9913" r="1.39737" transform="rotate(-90 13.6947 7.9913)" fill="#3758F9"/>
<circle id="Ellipse 13" cx="25.9911" cy="44.6026" r="1.39737" transform="rotate(-90 25.9911 44.6026)" fill="#3758F9"/>
<circle id="Ellipse 53" cx="25.9911" cy="7.9913" r="1.39737" transform="rotate(-90 25.9911 7.9913)" fill="#3758F9"/>
<circle id="Ellipse 18" cx="38.2885" cy="44.6026" r="1.39737" transform="rotate(-90 38.2885 44.6026)" fill="#3758F9"/>
<circle id="Ellipse 54" cx="38.2885" cy="7.9913" r="1.39737" transform="rotate(-90 38.2885 7.9913)" fill="#3758F9"/>
<circle id="Ellipse 4" cx="1.39737" cy="32.3058" r="1.39737" transform="rotate(-90 1.39737 32.3058)" fill="#3758F9"/>
<circle id="Ellipse 9" cx="13.6947" cy="32.3058" r="1.39737" transform="rotate(-90 13.6947 32.3058)" fill="#3758F9"/>
<circle id="Ellipse 14" cx="25.9911" cy="32.3058" r="1.39737" transform="rotate(-90 25.9911 32.3058)" fill="#3758F9"/>
<circle id="Ellipse 19" cx="38.2885" cy="32.3058" r="1.39737" transform="rotate(-90 38.2885 32.3058)" fill="#3758F9"/>
<circle id="Ellipse 5" cx="1.39737" cy="20.0089" r="1.39737" transform="rotate(-90 1.39737 20.0089)" fill="#3758F9"/>
<circle id="Ellipse 10" cx="13.6947" cy="20.0089" r="1.39737" transform="rotate(-90 13.6947 20.0089)" fill="#3758F9"/>
<circle id="Ellipse 15" cx="25.9911" cy="20.0089" r="1.39737" transform="rotate(-90 25.9911 20.0089)" fill="#3758F9"/>
<circle id="Ellipse 20" cx="38.2885" cy="20.0089" r="1.39737" transform="rotate(-90 38.2885 20.0089)" fill="#3758F9"/>
</g>
</svg>
